<svg width="22" height="22" viewBox="0 0 22 22" fill="none" xmlns="http://www.w3.org/2000/svg">
<path d="M19.2496 19.25L13.7496 13.75M2.74963 9.16667C2.74963 10.0093 2.91561 10.8437 3.23807 11.6222C3.56054 12.4007 4.03319 13.1081 4.62903 13.7039C5.22487 14.2998 5.93224 14.7724 6.71075 15.0949C7.48925 15.4174 8.32365 15.5833 9.1663 15.5833C10.0089 15.5833 10.8433 15.4174 11.6219 15.0949C12.4004 14.7724 13.1077 14.2998 13.7036 13.7039C14.2994 13.1081 14.7721 12.4007 15.0945 11.6222C15.417 10.8437 15.583 10.0093 15.583 9.16667C15.583 8.32402 15.417 7.48962 15.0945 6.71111C14.7721 5.93261 14.2994 5.22524 13.7036 4.6294C13.1077 4.03356 12.4004 3.56091 11.6219 3.23844C10.8433 2.91597 10.0089 2.75 9.1663 2.75C8.32365 2.75 7.48925 2.91597 6.71075 3.23844C5.93224 3.56091 5.22487 4.03356 4.62903 4.6294C4.03319 5.22524 3.56054 5.93261 3.23807 6.71111C2.91561 7.48962 2.74963 8.32402 2.74963 9.16667Z" stroke="black" stroke-width="2" stroke-linecap="round" stroke-linejoin="round"/>
</svg>
